# xmcd
#
# Track frame offsets:
#	150
#	10530
#	25472
#	41270
#	55247
#	68430
#	87195
#	104977
#	121335
#	135490
#	152702
#	170245
#	186757
#	202295
#	218352
#	239585
#	271767
#	288325
#	306102
#	322415
#	347715
#
# Disc length: 4770 seconds
#
# Revision: 1
# Processed by: cddbd v1.5.2PL0 Copyright (c) Steve Scherf et al.
# Submitted via: audiograbber 1.83.01
#
DISCID=3612a015
DTITLE=Various Artist - 4. Oldie Night CD 2 (Die Hits and Hitmixe)
DYEAR=2003
DGENRE=Oldies
TTITLE0=Blondie - Denise
TTITLE1=Tina Charles - I love to love
TTITLE2=Linda and the funky boys - Sold my rock´n roll
TTITLE3=Kool and the gang - Celebration (live)
TTITLE4=Rose Royce - Car wash (live)
TTITLE5=Gloria Gaynor - Nerver can say goodbye
TTITLE6=Anita Ward - Ring my bell
TTITLE7=Thelma Houston - Don´t leave me this way
TTITLE8=Billy Ocean - Love really hurts without you
TTITLE9=The Shorts - Je suis, tu es
TTITLE10=Irene Cara - Flashdance
TTITLE11=Evelyn Thomas - High energy
TTITLE12=F.R. David - Words
TTITLE13=Gino Castelli - Bella ti amo
TTITLE14=Stephanie - Irresistible
TTITLE15=Village People - We want you - Megamix
TTITLE16=Smokie - Hitmix 
TTITLE17=Lennon-McCartney-Discomix - Twist and shout
TTITLE18=Lara de Luna - Mamy blue
TTITLE19=T.E.A.R.S. - Ca plane pour moi
TTITLE20=Daten-CD
EXTD=
EXTT0=
EXTT1=
EXTT2=
EXTT3=
EXTT4=
EXTT5=
EXTT6=
EXTT7=
EXTT8=
EXTT9=
EXTT10=
EXTT11=
EXTT12=
EXTT13=
EXTT14=
EXTT15=
EXTT16=
EXTT17=
EXTT18=
EXTT19=
EXTT20=
PLAYORDER=
